#N canvas 275 573 409 282 10;
#X obj 37 230 dac~ 1 2;
#X text 175 222 ---------------------------------;
#X obj 37 102 *~ 1000;
#X obj 37 199 *~ 0.1;
#X obj 37 79 adc~ 3;
#X obj 65 125 adc~ 4;
#X obj 94 147 adc~ 5;
#N canvas 81 574 322 252 FMvoice 1;
#X obj 20 174 +~;
#X obj 93 116 osc~;
#X obj 93 157 *~;
#X obj 93 76 *~;
#X obj 158 98 *~;
#X obj 20 225 outlet~;
#X obj 20 200 osc~;
#X obj 20 39 inlet~ freq;
#X obj 108 39 inlet~ harmRatio~;
#X obj 173 69 inlet~ modIndex~;
#X connect 0 0 6 0;
#X connect 1 0 2 0;
#X connect 2 0 0 1;
#X connect 3 0 4 0;
#X connect 3 0 1 0;
#X connect 4 0 2 1;
#X connect 6 0 5 0;
#X connect 7 0 3 0;
#X connect 7 0 0 0;
#X connect 8 0 3 1;
#X connect 9 0 4 1;
#X restore 37 169 pd FMvoice;
#X text 33 22 Simple FM;
#X text 33 32 =========;
#X text 175 212 @krighxz / BELA / heavy / 12/2015;
#X text 199 231 beaglert.cc / enzienaudio.com;
#X connect 2 0 7 0;
#X connect 3 0 0 1;
#X connect 3 0 0 0;
#X connect 4 0 2 0;
#X connect 5 0 7 1;
#X connect 6 0 7 2;
#X connect 7 0 3 0;
